<?xml version="1.0" encoding="utf-8"?>
<!-- Generator: Adobe Illustrator 19.0.0, SVG Export Plug-In . SVG Version: 6.00 Build 0)  -->
<svg version="1.0" id="Layer_1" xmlns="http://www.w3.org/2000/svg" xmlns:xlink="http://www.w3.org/1999/xlink" x="0px" y="0px"
	 viewBox="0 0 302.397 130.199" enable-background="new 0 0 302.397 130.199" xml:space="preserve">
<g>
	<path d="M29.547,86.526c-1.634,1.568-3.823,2.319-6.077,2.319h-8.069V65.683h8.069c2.254,0,4.443,0.784,6.077,2.352
		c2.548,2.418,2.973,5.881,2.973,9.213S32.062,84.108,29.547,86.526z M27.586,69.962c-1.078-1.078-2.613-1.601-4.116-1.601h-5.161
		v17.805h5.161c1.503,0,3.038-0.522,4.116-1.601c1.83-1.862,1.993-4.835,1.993-7.318C29.579,74.765,29.416,71.857,27.586,69.962z"/>
	<path d="M36.888,88.845V65.683h2.974v23.162H36.888z"/>
	<path d="M53.883,88.845h-3.038l-7.808-23.162h3.005l6.403,19.568l6.272-19.568h2.974L53.883,88.845z"/>
	<path d="M64.916,88.845V65.683h2.974v23.162H64.916z"/>
	<path d="M87.517,86.95c-1.601,1.567-4.084,2.319-6.566,2.319c-2.81,0-5.063-0.784-6.632-2.222
		c-1.471-1.372-2.483-3.365-2.483-5.554h3.039c0,1.372,0.686,2.744,1.633,3.659c1.046,1.013,2.81,1.438,4.443,1.438
		c1.764,0,3.267-0.359,4.312-1.34c0.719-0.653,1.176-1.47,1.176-2.711c0-1.797-1.144-3.3-3.888-3.725l-3.659-0.556
		c-3.463-0.522-6.174-2.45-6.174-6.142c0-1.731,0.783-3.397,2.025-4.573c1.601-1.503,3.658-2.287,6.076-2.287
		c2.254,0,4.476,0.751,6.011,2.222c1.405,1.339,2.156,3.005,2.222,4.966h-3.038c-0.065-1.144-0.49-2.156-1.144-2.908
		c-0.882-1.013-2.287-1.601-4.083-1.601c-1.667,0-3.104,0.457-4.117,1.601c-0.588,0.687-0.947,1.471-0.947,2.516
		c0,2.091,1.731,3.038,3.463,3.267c1.307,0.164,2.581,0.393,3.855,0.589c3.854,0.555,6.436,2.907,6.436,6.566
		C89.477,84.402,88.66,85.839,87.517,86.95z"/>
	<path d="M93.686,88.845V65.683h2.974v23.162H93.686z"/>
	<path d="M116.482,86.82c-1.666,1.634-3.92,2.482-6.239,2.482s-4.574-0.849-6.24-2.482c-2.516-2.45-2.973-5.848-2.973-9.539
		c0-3.692,0.457-7.09,2.973-9.54c1.666-1.633,3.921-2.482,6.24-2.482s4.573,0.85,6.239,2.482c2.516,2.45,2.974,5.848,2.974,9.54
		C119.455,80.972,118.997,84.369,116.482,86.82z M114.456,69.766c-1.11-1.143-2.646-1.731-4.214-1.731s-3.104,0.589-4.215,1.731
		c-1.895,1.961-1.992,5.097-1.992,7.515c0,2.417,0.098,5.554,1.992,7.514c1.111,1.144,2.646,1.731,4.215,1.731
		s3.104-0.588,4.214-1.731c1.896-1.96,1.993-5.097,1.993-7.514C116.45,74.863,116.352,71.727,114.456,69.766z"/>
	<path d="M138.019,88.845L126.65,70.224v18.621h-2.81V65.683h3.268l11.368,18.687V65.683h2.81v23.162H138.019z"/>
	<path d="M169.318,86.82c-1.666,1.634-3.92,2.482-6.239,2.482s-4.574-0.849-6.24-2.482c-2.516-2.45-2.973-5.848-2.973-9.539
		c0-3.692,0.457-7.09,2.973-9.54c1.666-1.633,3.921-2.482,6.24-2.482s4.573,0.85,6.239,2.482c2.516,2.45,2.974,5.848,2.974,9.54
		C172.291,80.972,171.833,84.369,169.318,86.82z M167.292,69.766c-1.11-1.143-2.646-1.731-4.214-1.731s-3.104,0.589-4.215,1.731
		c-1.895,1.961-1.992,5.097-1.992,7.515c0,2.417,0.098,5.554,1.992,7.514c1.111,1.144,2.646,1.731,4.215,1.731
		s3.104-0.588,4.214-1.731c1.896-1.96,1.993-5.097,1.993-7.514C169.285,74.863,169.188,71.727,167.292,69.766z"/>
	<path d="M179.584,68.362v7.547h10.78v2.744h-10.78v10.192h-2.908V65.683h14.995v2.679H179.584z"/>
	<path d="M29.285,116.95c-1.601,1.567-4.084,2.319-6.566,2.319c-2.81,0-5.063-0.784-6.632-2.222
		c-1.471-1.372-2.483-3.365-2.483-5.554h3.039c0,1.372,0.686,2.744,1.633,3.659c1.046,1.013,2.81,1.438,4.443,1.438
		c1.764,0,3.267-0.359,4.312-1.34c0.719-0.653,1.176-1.47,1.176-2.711c0-1.797-1.144-3.3-3.888-3.725l-3.659-0.556
		c-3.463-0.522-6.174-2.45-6.174-6.142c0-1.731,0.784-3.397,2.025-4.573c1.601-1.503,3.658-2.287,6.076-2.287
		c2.254,0,4.476,0.751,6.011,2.222c1.405,1.339,2.156,3.005,2.222,4.966h-3.038c-0.065-1.144-0.49-2.156-1.144-2.908
		c-0.882-1.013-2.287-1.601-4.083-1.601c-1.667,0-3.104,0.457-4.117,1.601c-0.588,0.687-0.947,1.471-0.947,2.516
		c0,2.091,1.731,3.038,3.463,3.267c1.307,0.164,2.581,0.393,3.855,0.589c3.854,0.555,6.436,2.907,6.436,6.566
		C31.245,114.402,30.429,115.839,29.285,116.95z"/>
	<path d="M42.834,98.394v20.451h-2.94V98.394h-6.893v-2.711h16.727v2.711H42.834z"/>
	<path d="M61.229,119.27c-5.194,0-8.462-3.137-8.462-8.919V95.683h2.908v14.733c0,3.691,1.535,6.142,5.554,6.142
		c4.018,0,5.554-2.45,5.554-6.142V95.683h2.907v14.668C69.69,116.133,66.423,119.27,61.229,119.27z"/>
	<path d="M89.021,116.526c-1.634,1.568-3.822,2.319-6.077,2.319h-8.069V95.683h8.069c2.255,0,4.443,0.784,6.077,2.352
		c2.548,2.418,2.973,5.881,2.973,9.213S91.535,114.108,89.021,116.526z M87.06,99.962c-1.078-1.078-2.613-1.601-4.116-1.601h-5.161
		v17.805h5.161c1.503,0,3.038-0.522,4.116-1.601c1.83-1.862,1.993-4.835,1.993-7.318C89.053,104.765,88.89,101.857,87.06,99.962z"/>
	<path d="M96.378,118.845V95.683h15.485v2.679H99.286v7.057h11.042v2.744H99.286v8.004h12.577v2.679H96.378z"/>
	<path d="M130.009,118.845l-11.369-18.621v18.621h-2.81V95.683h3.268l11.368,18.687V95.683h2.81v23.162H130.009z"/>
	<path d="M146.479,98.394v20.451h-2.94V98.394h-6.893v-2.711h16.727v2.711H146.479z"/>
	<path d="M178.399,118.845l-1.895-5.488h-10.062l-1.862,5.488h-2.939l8.167-23.162h3.397l8.2,23.162H178.399z M171.441,98.59
		l-4.084,12.022h8.2L171.441,98.59z"/>
	<path d="M187.603,98.362v7.547h10.78v2.744h-10.78v10.192h-2.908V95.683h14.995v2.679H187.603z"/>
	<path d="M206.186,98.362v7.547h10.78v2.744h-10.78v10.192h-2.908V95.683h14.995v2.679H206.186z"/>
	<path d="M234.719,118.845l-1.895-5.488h-10.062l-1.862,5.488h-2.939l8.167-23.162h3.397l8.2,23.162H234.719z M227.761,98.59
		l-4.084,12.022h8.2L227.761,98.59z"/>
	<path d="M241.015,118.845V95.683h2.974v23.162H241.015z"/>
	<path d="M263.171,118.845l-4.378-9.638h-6.402v9.638h-2.908V95.683h9.082c2.712,0,4.606,0.751,5.881,2.058
		c1.11,1.177,1.829,2.679,1.829,4.705c0,2.025-0.653,3.397-1.764,4.573c-0.687,0.719-1.666,1.274-2.777,1.634l4.64,10.192H263.171z
		 M258.565,98.362h-6.174v8.135h6.174c2.744,0,4.705-1.111,4.705-4.051C263.27,99.505,261.309,98.362,258.565,98.362z"/>
	<path d="M284.554,116.95c-1.601,1.567-4.084,2.319-6.566,2.319c-2.81,0-5.063-0.784-6.632-2.222
		c-1.471-1.372-2.483-3.365-2.483-5.554h3.039c0,1.372,0.686,2.744,1.633,3.659c1.046,1.013,2.81,1.438,4.443,1.438
		c1.764,0,3.267-0.359,4.312-1.34c0.719-0.653,1.176-1.47,1.176-2.711c0-1.797-1.144-3.3-3.888-3.725l-3.659-0.556
		c-3.463-0.522-6.174-2.45-6.174-6.142c0-1.731,0.783-3.397,2.025-4.573c1.601-1.503,3.658-2.287,6.076-2.287
		c2.254,0,4.476,0.751,6.011,2.222c1.405,1.339,2.156,3.005,2.222,4.966h-3.038c-0.065-1.144-0.49-2.156-1.144-2.908
		c-0.882-1.013-2.287-1.601-4.083-1.601c-1.667,0-3.104,0.457-4.117,1.601c-0.588,0.687-0.947,1.471-0.947,2.516
		c0,2.091,1.731,3.038,3.463,3.267c1.307,0.164,2.581,0.393,3.855,0.589c3.854,0.555,6.436,2.907,6.436,6.566
		C286.514,114.402,285.698,115.839,284.554,116.95z"/>
</g>
<g>
	<polygon fill="#4F2984" points="24.801,40.73 21.277,39.8 20.375,38.695 20.375,19.005 39.992,42.355 41.717,42.355 41.717,14.3 
		45.867,13.042 45.867,11.576 34.511,11.576 34.511,13.226 38.121,14.13 39,15.238 39,33.886 38.996,33.865 38.761,33.865 
		19.73,11.339 14.683,11.339 14.683,12.56 17.75,15.994 17.75,39.585 13.613,40.738 13.613,42.124 24.801,42.124 	"/>
	<path fill="#4F2984" d="M56.679,20.21c-5.213,0-10.844,3.781-10.844,11.301c0,7.57,5.305,11.121,10.844,11.121
		c5.121,0,10.935-4.244,10.935-11.488C67.615,23.622,62.125,20.21,56.679,20.21z M57.281,40.558c-4.664,0-7.152-4.525-7.152-9.691
		c0-5.168,1.982-8.629,5.953-8.629c4.43,0,7.244,4.385,7.244,9.551C63.326,36.958,61.25,40.558,57.281,40.558z"/>
	<path fill="#4F2984" d="M105.461,42.126h10.742l-0.004-1.17l-2.984-1.039l-0.883-1.109v-9.877v-3.42c0,0,1.844-2.121,4.703-2.121
		c3.371,0,6.279,1.016,6.279,6.186l-0.139,10.231l-2.955,1.123v1.197h10.746l-0.006-1.17l-2.984-1.039l-0.883-1.109l0.004-11.447
		c0-5.588-3.508-7.15-7.289-7.15c-3.047,0-7.477,3.551-7.477,3.551v-6.414c0-3.555,0.23-8.305,0.23-8.305h-0.463l-6.83,2.305v1.062
		c2.215,0,3.23,1.098,3.23,5.119l0.004,22.242l-3.043,1.158V42.126z"/>
	<path fill="#4F2984" d="M172.761,42.632c3.879,0,6.969-2.352,8.078-3.459l-0.465-0.879c0,0-3.086,1.064-5.672,1.064
		c-4.152,0-7.801-2.68-7.801-9.092h13.613c0,0,0.232-1.154,0.232-2.443c0-4.986-3.42-7.613-7.803-7.613
		c-5.625,0-10.148,4.75-10.148,11.301C162.797,38.714,167.504,42.632,172.761,42.632z M172.347,22.331
		c2.953,0,4.336,1.473,4.336,3.414c0,2.26-0.785,2.676-3,2.766l-6.781,0.232C166.902,25.052,169.258,22.331,172.347,22.331z"/>
	<path fill="#4F2984" d="M194.213,29.898l-2.076-1.061c-3.645-1.893-4.242-2.537-4.242-4.014c0-1.848,1.75-2.586,3.645-2.586
		c2.814,0,4.197,1.246,4.197,4.613h1.893l0.602-5.396c0,0-2.539-1.244-5.82-1.244c-4.656,0-7.656,1.982-7.656,6.133
		c0,3.326,1.664,4.709,5.031,6.414l2.352,1.201c1.758,0.924,3.188,1.85,3.188,3.6c0,1.844-1.062,3.232-3.738,3.232
		c-2.633,0-4.664-1.939-5.215-4.939h-2.031l0.275,4.383c0.049,0.969,0.877,1.434,1.197,1.57c1.344,0.555,3.418,0.828,5.773,0.828
		c3.691,0,7.477-2.262,7.477-6.043C199.062,33.453,197.998,31.837,194.213,29.898z"/>
	<path fill="#4F2984" d="M229.898,39.359c-4.152,0-7.797-2.68-7.797-9.092h13.609c0,0,0.232-1.154,0.232-2.443
		c0-4.986-3.42-7.613-7.803-7.613c-5.625,0-10.148,4.75-10.148,11.301c0,7.203,4.707,11.121,9.965,11.121
		c3.879,0,6.969-2.352,8.078-3.459l-0.465-0.879C235.57,38.294,232.484,39.359,229.898,39.359z M227.543,22.331
		c2.953,0,4.336,1.473,4.336,3.414c0,2.26-0.785,2.676-3,2.766l-6.777,0.232C222.101,25.052,224.453,22.331,227.543,22.331z"/>
	<path fill="#4F2984" d="M259.884,30.081v9.691l-3.045,1.156v1.197h10.613l0.082-1.17l-2.984-1.039l-0.883-1.109l0.004-13.246
		c0,0,1.613-2.168,4.52-2.168c3,0,6.09,1.059,6.09,6.182l-0.141,10.24l-2.945,1.113v1.197h10.605l0.09-1.17l-2.986-1.039
		l-0.881-1.109l0.047-11.68c0-5.399-3.512-6.922-7.109-6.922c-3.049,0-7.338,3.557-7.338,3.557c0-1.939,0.092-3.693,0.092-3.693
		h-0.371l-6.734,2.445v1.107C259.191,23.622,259.884,25.931,259.884,30.081z"/>
	<path fill="#4F2984" d="M162.851,22.052v-1.291h-8.262v1.199l3.141,1.109l-4.863,13.936l-4.68-14.027l2.773-0.834v-1.383h-8.805
		v1.291l1.582,0.389l1.246,3.572l-0.848,2.225l-3.645,8.768l-4.148-14.027l2.77-0.914v-1.303h-9.109v1.291
		c1.477,0,1.926,1.244,2.711,3.369l5.566,16.938h1.934l5.668-13.709l4.941,13.709H153l5.559-15.783
		C160.035,22.79,160.957,22.285,162.851,22.052z"/>
	<path fill="#4F2984" d="M99.676,39.773c-2.078,0-3.971-1.156-3.922-4.012l0.184-12.092h6.832v-0.002h0.061l0.092-0.75h0.004
		l0.457-3.789l-0.871-0.16l-0.664,1.445l-0.377,0.316l-5.428,0.211v0.004h-0.059v-5.49l-2.676,0.463l-1.156,5.215l-3.781,0.369V23.3
		c2.074,0,3.781,0.182,3.781,2.168c0,1.984-0.184,8.215-0.184,10.705c0,4.709,1.801,6.463,4.801,6.463
		c2.582,0,4.703-1.062,6.645-2.631l-0.512-1.064C102.902,38.941,101.611,39.773,99.676,39.773z"/>
	<path fill="#4F2984" d="M205.125,25.468c0,1.984-0.184,8.215-0.184,10.705c0,4.709,1.797,6.463,4.797,6.463
		c2.586,0,4.707-1.062,6.645-2.631l-0.504-1.064c0,0-1.297,0.832-3.234,0.832c-2.074,0-3.969-1.156-3.922-4.012l0.186-12.092h6.83
		v-0.002h0.012l0.094-0.75h0.004l0.461-3.789l-0.879-0.16l-0.66,1.445l-0.375,0.316l-5.43,0.211v0.004h-0.01v-5.49l-2.674,0.463
		l-1.156,5.215l-3.785,0.369V23.3C203.418,23.3,205.125,23.482,205.125,25.468z"/>
	<path fill="#4F2984" d="M85.726,20.484h-0.004c-0.023-0.008-0.801-0.273-2.301-0.273c-3.234,0-6.605,5.074-6.605,5.074
		c0-2.812,0.094-5.213,0.094-5.213h-0.367l-6.598,2.443v1.107c2.488,0,3.273,2.262,3.273,6.092v10.059l-3.047,1.152v1.201h10.613
		l-0.008-1.17l-2.98-1.043l-0.887-1.109v-9.875c0-3.045,2.402-4.754,4.988-4.754c0.527,0,1.068,0.129,1.535,0.289l0.719,1.062
		l0.891,0.076L85.726,20.484z"/>
	<path fill="#4F2984" d="M238.949,40.925v1.201h10.611l-0.006-1.17l-2.984-1.043l-0.883-1.109v-9.875
		c0-3.045,2.398-4.754,4.984-4.754c0.529,0,1.07,0.129,1.535,0.289l0.723,1.062l0.887,0.076l0.688-5.119h-0.008
		c-0.016-0.008-0.801-0.273-2.301-0.273c-3.23,0-6.598,5.074-6.598,5.074c0-2.812,0.09-5.213,0.09-5.213h-0.369l-6.6,2.443v1.107
		c2.496,0,3.281,2.262,3.281,6.092v10.059L238.949,40.925z"/>
	<g>
		<path d="M13.724,52.983h268.51v1.582H13.724V52.983z"/>
	</g>
</g>
<text transform="matrix(1 0 0 1 280.8919 37.8196)" fill="#4F2984" font-family="'MyriadPro-Regular'" font-size="28.3284px">®</text>
</svg>
